<?xml version="1.0" standalone="no"?>
<!DOCTYPE svg PUBLIC "-//W3C//DTD SVG 20010904//EN"
 "http://www.w3.org/TR/2001/REC-SVG-20010904/DTD/svg10.dtd">
<svg version="1.0" xmlns="http://www.w3.org/2000/svg"
 width="500.000000pt" height="500.000000pt" viewBox="0 0 500.000000 500.000000"
 preserveAspectRatio="xMidYMid meet">

<g transform="translate(0.000000,500.000000) scale(0.100000,-0.100000)"
fill="#000000" stroke="none">
<path d="M2265 4989 c-577 -56 -1113 -308 -1526 -719 -394 -391 -628 -859
-716 -1430 -21 -142 -24 -509 -5 -645 117 -816 552 -1466 1247 -1866 836 -480
1871 -431 2670 126 850 593 1241 1651 985 2665 -173 685 -637 1268 -1271 1599
-418 218 -916 315 -1384 270z m1345 -1209 l0 -360 -680 0 -680 0 0 -260 0
-260 588 -2 587 -3 3 -332 2 -333 -590 0 -590 0 0 -275 0 -275 705 0 705 0 0
-370 0 -370 -1100 0 -1100 0 0 1600 0 1600 1075 0 1075 0 0 -360z"/>
</g>
</svg>
