<svg version="1.1" id="Layer_1" xmlns="http://www.w3.org/2000/svg" xmlns:xlink="http://www.w3.org/1999/xlink" x="0px" y="0px"
	 width="100%" viewBox="0 0 100 276" enable-background="new 0 0 100 276" xml:space="preserve">
<path fill="#83878C" opacity="1.000000" stroke="none" 
	d="
M101.000000,95.000000 
	C101.000000,156.000000 101.000000,216.500000 101.000000,277.000000 
	C67.666664,277.000000 34.333332,277.000000 1.000000,277.000000 
	C1.000000,185.000000 1.000000,93.000000 1.000000,1.000000 
	C34.333332,1.000000 67.666664,1.000000 101.000000,1.000000 
	C101.000000,32.166668 101.000000,63.333332 101.000000,95.000000 
M8.817733,262.359131 
	C8.222918,266.533295 9.616858,268.200775 14.225712,268.158752 
	C38.374722,267.938568 62.527885,267.937256 86.676872,268.158569 
	C91.305794,268.200989 92.149857,266.501556 92.144775,262.342834 
	C92.043831,179.729828 92.028732,97.116608 92.174324,14.503732 
	C92.182793,9.697823 90.528099,8.705606 86.143990,8.738758 
	C62.827099,8.915070 39.508171,8.819478 16.189951,8.821765 
	C8.825856,8.822488 8.818189,8.827786 8.818014,16.051947 
	C8.816049,97.832283 8.816611,179.612610 8.817733,262.359131 
z"/>
<path fill="#172027" opacity="1.000000" stroke="none" 
	d="
M8.817115,261.876038 
	C8.816611,179.612610 8.816049,97.832283 8.818014,16.051947 
	C8.818189,8.827786 8.825856,8.822488 16.189951,8.821765 
	C39.508171,8.819478 62.827099,8.915070 86.143990,8.738758 
	C90.528099,8.705606 92.182793,9.697823 92.174324,14.503732 
	C92.028732,97.116608 92.043831,179.729828 92.144775,262.342834 
	C92.149857,266.501556 91.305794,268.200989 86.676872,268.158569 
	C62.527885,267.937256 38.374722,267.938568 14.225712,268.158752 
	C9.616858,268.200775 8.222918,266.533295 8.817115,261.876038 
M32.413456,141.162628 
	C32.022900,141.842804 31.632345,142.522995 31.040518,143.725418 
	C30.914305,144.076538 30.788094,144.427643 29.999956,144.885406 
	C29.728741,145.642441 29.457525,146.399475 29.054081,147.822357 
	C28.957926,148.494019 28.861771,149.165695 28.089844,150.184647 
	C27.318787,153.472961 24.589281,157.014328 30.176081,159.671143 
	C33.683884,159.641449 37.191685,159.611771 41.435745,159.697983 
	C41.983112,157.131836 42.530476,154.565689 43.254074,151.282104 
	C44.785320,147.756546 47.961231,146.612747 51.000622,147.824921 
	C53.185757,148.696396 55.480244,151.190018 56.223057,153.453278 
	C59.435482,163.241150 55.341064,169.786804 45.254532,170.708542 
	C39.985123,171.190094 40.900555,174.398422 40.703510,177.657883 
	C40.493450,181.132690 41.097435,183.065292 45.358334,183.360519 
	C53.227200,183.905777 55.836880,185.688751 56.466705,191.553192 
	C57.022320,196.726578 56.637154,202.173538 55.548985,207.260468 
	C55.150520,209.123169 51.689297,211.164459 49.354004,211.572678 
	C46.284008,212.109329 43.605907,210.281830 42.930473,206.701706 
	C42.745594,205.721756 42.770473,204.582840 42.257580,203.809814 
	C41.289360,202.350525 40.011250,199.987045 38.843296,199.976028 
	C35.193054,199.941620 31.528915,200.799515 27.892483,201.438538 
	C27.690260,201.474091 27.545073,202.671997 27.616905,203.301071 
	C28.433949,210.456406 29.435286,217.536560 36.853348,221.949493 
	C37.901299,222.319016 38.949249,222.688538 40.697975,223.128082 
	C41.394382,223.232040 42.090794,223.335999 43.179733,224.092133 
	C47.192169,223.874908 51.204605,223.657684 55.908115,223.304688 
	C56.605854,223.208939 57.303593,223.113190 58.364845,223.414917 
	C59.306370,222.725525 60.247898,222.036133 61.788380,221.066727 
	C63.142513,220.000519 64.496651,218.934311 66.516144,217.751022 
	C66.908112,217.072952 67.300087,216.394882 67.926720,215.036484 
	C72.103233,208.094589 71.889908,200.435074 71.269318,192.818497 
	C70.722717,186.110046 67.552216,180.712341 60.846718,176.929337 
	C68.334290,172.497742 71.397049,166.225006 71.480377,158.453827 
	C71.560272,151.003418 70.879883,143.802612 63.872227,138.349625 
	C61.457153,137.435532 59.042080,136.521423 55.752380,135.489716 
	C51.292404,135.550461 46.832424,135.611206 41.771450,135.329727 
	C41.127670,135.812897 40.483891,136.296066 39.231804,137.038055 
	C37.883183,137.764511 36.534561,138.490967 34.510494,139.163437 
	C34.032192,139.798569 33.553890,140.433716 32.999271,141.004486 
	C32.999271,141.004486 33.072098,141.074783 32.413456,141.162628 
M63.028336,79.756798 
	C69.468117,79.044861 66.427048,74.042374 66.893578,70.810593 
	C67.412254,67.217529 64.495750,67.548790 62.166744,67.533875 
	C58.838284,67.512558 55.463184,67.846840 52.201572,67.378120 
	C50.680908,67.159607 48.211418,65.451538 48.174282,64.351067 
	C47.974346,58.426479 48.403370,52.480663 48.615337,46.542175 
	C53.360466,46.239735 58.105576,45.936966 62.850807,45.636181 
	C63.016567,45.625675 63.183582,45.634880 63.350010,45.634850 
	C71.465836,45.633476 71.324097,45.634899 71.240997,37.349236 
	C71.208305,34.089493 70.099396,32.945736 66.869576,32.992012 
	C57.385044,33.127907 47.893887,33.188511 38.412453,32.969765 
	C34.438690,32.878086 33.339764,34.262505 33.367413,38.181595 
	C33.536488,62.146255 33.390606,86.112938 33.482216,110.078438 
	C33.518723,119.627441 31.183989,119.502426 43.224522,119.637352 
	C47.044071,119.680145 48.101887,118.273224 47.989719,114.669876 
	C47.772331,107.686615 47.926540,100.691780 47.926575,93.701744 
	C47.926647,79.762321 47.926594,79.762321 63.028336,79.756798 
M21.681561,247.723480 
	C20.082884,247.801895 18.484209,247.880310 16.761316,247.964813 
	C16.761316,251.467941 16.761316,254.538391 16.761316,257.574646 
	C39.412899,257.574646 61.713013,257.574646 84.064911,257.574646 
	C84.064911,254.187912 84.064911,251.259033 84.064911,247.723206 
	C63.422565,247.723206 43.035011,247.723206 21.681561,247.723480 
z"/>
<path fill="#F1F2F2" opacity="1.000000" stroke="none" 
	d="
M65.850784,217.868103 
	C64.496651,218.934311 63.142513,220.000519 61.168720,221.109253 
	C59.699818,221.773682 58.850574,222.395569 58.001335,223.017456 
	C57.303593,223.113190 56.605854,223.208939 55.100979,223.238602 
	C50.458294,223.261658 46.622749,223.350800 42.787201,223.439957 
	C42.090794,223.335999 41.394382,223.232040 40.182957,222.805801 
	C38.713284,222.110733 37.758629,221.737930 36.803970,221.365143 
	C29.435286,217.536560 28.433949,210.456406 27.616905,203.301071 
	C27.545073,202.671997 27.690260,201.474091 27.892483,201.438538 
	C31.528915,200.799515 35.193054,199.941620 38.843296,199.976028 
	C40.011250,199.987045 41.289360,202.350525 42.257580,203.809814 
	C42.770473,204.582840 42.745594,205.721756 42.930473,206.701706 
	C43.605907,210.281830 46.284008,212.109329 49.354004,211.572678 
	C51.689297,211.164459 55.150520,209.123169 55.548985,207.260468 
	C56.637154,202.173538 57.022320,196.726578 56.466705,191.553192 
	C55.836880,185.688751 53.227200,183.905777 45.358334,183.360519 
	C41.097435,183.065292 40.493450,181.132690 40.703510,177.657883 
	C40.900555,174.398422 39.985123,171.190094 45.254532,170.708542 
	C55.341064,169.786804 59.435482,163.241150 56.223057,153.453278 
	C55.480244,151.190018 53.185757,148.696396 51.000622,147.824921 
	C47.961231,146.612747 44.785320,147.756546 42.855995,151.833923 
	C41.871777,154.784515 41.285633,157.183304 40.699486,159.582092 
	C37.191685,159.611771 33.683884,159.641449 29.706097,159.198090 
	C29.079281,155.762466 28.922449,152.799911 28.765615,149.837357 
	C28.861771,149.165695 28.957926,148.494019 29.434481,147.409088 
	C30.097212,146.256805 30.379545,145.517792 30.661880,144.778763 
	C30.788094,144.427643 30.914305,144.076538 31.462578,143.437775 
	C32.280457,142.458344 32.676277,141.766556 33.072098,141.074783 
	C33.072098,141.074783 32.999271,141.004486 33.345612,141.011963 
	C34.189949,140.418762 34.687946,139.818085 35.185944,139.217407 
	C36.534561,138.490967 37.883183,137.764511 39.825066,137.042328 
	C41.069702,136.588379 41.721073,136.130173 42.372448,135.671967 
	C46.832424,135.611206 51.292404,135.550461 56.342239,135.845428 
	C59.269386,137.153168 61.606678,138.105194 63.943970,139.057220 
	C70.879883,143.802612 71.560272,151.003418 71.480377,158.453827 
	C71.397049,166.225006 68.334290,172.497742 60.846718,176.929337 
	C67.552216,180.712341 70.722717,186.110046 71.269318,192.818497 
	C71.889908,200.435074 72.103233,208.094589 67.505432,215.451111 
	C66.673027,216.533203 66.261909,217.200653 65.850784,217.868103 
z"/>
<path fill="#F0F1F1" opacity="1.000000" stroke="none" 
	d="
M62.572521,79.758209 
	C47.926594,79.762321 47.926647,79.762321 47.926575,93.701744 
	C47.926540,100.691780 47.772331,107.686615 47.989719,114.669876 
	C48.101887,118.273224 47.044071,119.680145 43.224522,119.637352 
	C31.183989,119.502426 33.518723,119.627441 33.482216,110.078438 
	C33.390606,86.112938 33.536488,62.146255 33.367413,38.181595 
	C33.339764,34.262505 34.438690,32.878086 38.412453,32.969765 
	C47.893887,33.188511 57.385044,33.127907 66.869576,32.992012 
	C70.099396,32.945736 71.208305,34.089493 71.240997,37.349236 
	C71.324097,45.634899 71.465836,45.633476 63.350010,45.634850 
	C63.183582,45.634880 63.016567,45.625675 62.850807,45.636181 
	C58.105576,45.936966 53.360466,46.239735 48.615337,46.542175 
	C48.403370,52.480663 47.974346,58.426479 48.174282,64.351067 
	C48.211418,65.451538 50.680908,67.159607 52.201572,67.378120 
	C55.463184,67.846840 58.838284,67.512558 62.166744,67.533875 
	C64.495750,67.548790 67.412254,67.217529 66.893578,70.810593 
	C66.427048,74.042374 69.468117,79.044861 62.572521,79.758209 
z"/>
<path fill="#F7F7F7" opacity="1.000000" stroke="none" 
	d="
M22.164507,247.723343 
	C43.035011,247.723206 63.422565,247.723206 84.064911,247.723206 
	C84.064911,251.259033 84.064911,254.187912 84.064911,257.574646 
	C61.713013,257.574646 39.412899,257.574646 16.761316,257.574646 
	C16.761316,254.538391 16.761316,251.467941 16.761316,247.964813 
	C18.484209,247.880310 20.082884,247.801895 22.164507,247.723343 
z"/>
<path fill="#71777B" opacity="1.000000" stroke="none" 
	d="
M42.983467,223.766052 
	C46.622749,223.350800 50.458294,223.261658 54.755440,223.306488 
	C51.204605,223.657684 47.192169,223.874908 42.983467,223.766052 
z"/>
<path fill="#7F8488" opacity="1.000000" stroke="none" 
	d="
M28.427731,150.011002 
	C28.922449,152.799911 29.079281,155.762466 29.270866,159.159302 
	C24.589281,157.014328 27.318787,153.472961 28.427731,150.011002 
z"/>
<path fill="#7F8488" opacity="1.000000" stroke="none" 
	d="
M41.067619,159.640045 
	C41.285633,157.183304 41.871777,154.784515 42.767883,152.192627 
	C42.530476,154.565689 41.983112,157.131836 41.067619,159.640045 
z"/>
<path fill="#7F8488" opacity="1.000000" stroke="none" 
	d="
M63.908096,138.703430 
	C61.606678,138.105194 59.269386,137.153168 56.779552,135.904236 
	C59.042080,136.521423 61.457153,137.435532 63.908096,138.703430 
z"/>
<path fill="#71777B" opacity="1.000000" stroke="none" 
	d="
M36.828659,221.657318 
	C37.758629,221.737930 38.713284,222.110733 39.832565,222.770798 
	C38.949249,222.688538 37.901299,222.319016 36.828659,221.657318 
z"/>
<path fill="#71777B" opacity="1.000000" stroke="none" 
	d="
M58.183090,223.216187 
	C58.850574,222.395569 59.699818,221.773682 60.869244,221.249268 
	C60.247898,222.036133 59.306370,222.725525 58.183090,223.216187 
z"/>
<path fill="#7F8488" opacity="1.000000" stroke="none" 
	d="
M34.848221,139.190430 
	C34.687946,139.818085 34.189949,140.418762 33.383774,141.044144 
	C33.553890,140.433716 34.032192,139.798569 34.848221,139.190430 
z"/>
<path fill="#7F8488" opacity="1.000000" stroke="none" 
	d="
M32.742779,141.118713 
	C32.676277,141.766556 32.280457,142.458344 31.563213,143.176636 
	C31.632345,142.522995 32.022900,141.842804 32.742779,141.118713 
z"/>
<path fill="#7F8488" opacity="1.000000" stroke="none" 
	d="
M30.330917,144.832092 
	C30.379545,145.517792 30.097212,146.256805 29.500595,147.076172 
	C29.457525,146.399475 29.728741,145.642441 30.330917,144.832092 
z"/>
<path fill="#71777B" opacity="1.000000" stroke="none" 
	d="
M66.183472,217.809570 
	C66.261909,217.200653 66.673027,216.533203 67.388107,215.791275 
	C67.300087,216.394882 66.908112,217.072952 66.183472,217.809570 
z"/>
<path fill="#7F8488" opacity="1.000000" stroke="none" 
	d="
M42.071949,135.500854 
	C41.721073,136.130173 41.069702,136.588379 40.129219,136.912903 
	C40.483891,136.296066 41.127670,135.812897 42.071949,135.500854 
z"/>
</svg>